<svg xmlns="http://www.w3.org/2000/svg" xmlns:xlink="http://www.w3.org/1999/xlink" width="500" zoomAndPan="magnify" viewBox="0 0 375 374.999991" height="500" preserveAspectRatio="xMidYMid meet" version="1.2"><defs><clipPath id="2e99c2737d"><path d="M 0.0820312 39 L 374.933594 39 L 374.933594 358.875 L 0.0820312 358.875 Z M 0.0820312 39 "/></clipPath></defs><g id="88c380a82f"><g clip-rule="nonzero" clip-path="url(#2e99c2737d)"><path style=" stroke:none;fill-rule:nonzero;fill:#231f20;fill-opacity:1;" d="M 292.800781 213.632812 L 292.152344 213.402344 C 292.507812 213.484375 292.863281 213.578125 293.21875 213.65625 Z M 244.695312 123.347656 C 243.78125 123.144531 242.871094 122.808594 242.035156 122.355469 C 240.699219 122.039062 239.289062 121.949219 237.886719 122.066406 C 236.6875 122.140625 235.546875 122.363281 234.265625 122.53125 C 232.984375 122.675781 231.644531 122.640625 230.347656 122.335938 C 227.746094 121.703125 225.535156 120.019531 223.910156 118.066406 C 222.289062 116.085938 221.121094 113.773438 220.691406 111.320312 L 220.660156 111.128906 L 220.847656 111.105469 C 223.21875 110.816406 225.570312 110.640625 227.910156 110.527344 L 229.660156 110.445312 C 230.230469 110.417969 230.960938 110.433594 231.617188 110.511719 C 232.976562 110.664062 234.324219 111.195312 235.492188 111.917969 C 237.832031 113.445312 239.179688 115.621094 240.539062 117.40625 C 241.917969 119.195312 243.289062 120.757812 245.230469 121.699219 L 245.230469 121.703125 C 245.242188 121.707031 245.253906 121.707031 245.265625 121.710938 Z M 83.746094 323.1875 C 84.394531 317.539062 85.21875 311.945312 86.140625 306.367188 C 87.246094 299.671875 88.441406 293 89.808594 286.355469 L 91.9375 276.410156 C 92.71875 273.105469 93.421875 269.789062 94.28125 266.5 C 95.917969 259.910156 97.683594 253.339844 99.902344 246.855469 C 99.523438 253.695312 98.71875 260.453125 97.734375 267.179688 C 97.285156 270.550781 96.671875 273.890625 96.128906 277.242188 C 95.574219 280.378906 94.960938 283.503906 94.363281 286.625 L 95.238281 287.96875 C 95.070312 287.796875 94.90625 287.621094 94.734375 287.457031 C 95.988281 290.027344 97.035156 292.664062 98.171875 295.273438 C 99.316406 297.871094 100.445312 300.476562 101.652344 303.046875 C 104.039062 308.195312 106.523438 313.300781 109.1875 318.3125 C 111.886719 323.308594 114.621094 328.289062 117.675781 333.113281 C 119.191406 335.542969 120.757812 337.914062 122.539062 340.246094 C 122.765625 340.523438 123.019531 340.832031 123.277344 341.117188 L 123.980469 341.878906 C 124.433594 342.390625 124.859375 342.949219 125.304688 343.496094 L 127 345.6875 L 129.496094 351.0625 C 120.371094 349.164062 111.410156 346.488281 102.738281 343.066406 C 95.464844 340.214844 88.429688 336.777344 81.675781 332.84375 Z M 112.570312 257.710938 C 116.851562 255.574219 120.84375 252.898438 122.855469 248.820312 C 124.089844 246.625 125.402344 244.425781 127.148438 242.453125 C 128.019531 241.476562 129.011719 240.550781 130.121094 239.78125 C 131.222656 238.988281 132.46875 238.453125 133.578125 237.964844 C 134.136719 237.71875 134.671875 237.484375 135.175781 237.210938 C 135.367188 237.121094 135.6875 236.917969 135.9375 236.777344 C 136.164062 236.621094 136.382812 236.488281 136.609375 236.320312 C 137.523438 235.640625 138.332031 234.792969 139.085938 233.878906 C 140.566406 232.019531 141.710938 229.832031 142.804688 227.609375 C 142.277344 230.03125 141.5 232.421875 140.222656 234.65625 C 139.578125 235.769531 138.765625 236.808594 137.808594 237.730469 C 137.574219 237.964844 137.289062 238.191406 137.03125 238.414062 C 136.761719 238.609375 136.589844 238.765625 136.246094 238.992188 C 135.699219 239.359375 135.132812 239.683594 134.59375 239.988281 C 132.410156 241.160156 130.734375 242.425781 129.304688 244.28125 C 127.875 246.089844 126.625 248.128906 125.507812 250.257812 C 124.296875 252.589844 122.40625 254.714844 120.3125 256.25 C 118.179688 257.789062 115.882812 258.980469 113.515625 259.867188 C 108.792969 261.699219 103.929688 262.621094 99.074219 263.589844 C 103.554688 261.425781 108.261719 259.847656 112.570312 257.710938 Z M 24.59375 253.515625 C 24.925781 259.335938 25.988281 265.113281 27.4375 270.988281 C 24.253906 265.851562 22.121094 259.988281 21.097656 253.925781 C 20.53125 250.90625 20.328125 247.832031 20.207031 244.777344 C 20.132812 241.78125 20.140625 238.792969 20.105469 235.800781 C 20.117188 229.824219 20.324219 223.859375 20.609375 217.894531 C 20.855469 211.921875 21.40625 205.992188 21.6875 199.976562 C 22.570312 202.890625 22.941406 205.90625 23.351562 208.890625 C 23.695312 211.882812 23.972656 214.875 24.148438 217.871094 C 24.511719 223.859375 24.671875 229.84375 24.632812 235.820312 L 24.488281 244.777344 C 24.359375 247.695312 24.460938 250.601562 24.59375 253.515625 Z M 309.332031 191.550781 C 309.328125 191.550781 309.328125 191.550781 309.324219 191.550781 C 309.300781 191.542969 309.3125 191.542969 309.332031 191.550781 Z M 311.4375 196.433594 C 311.171875 195.605469 310.871094 194.792969 310.570312 194.089844 C 310.941406 194.832031 311.234375 195.621094 311.4375 196.433594 Z M 374.910156 195.378906 C 374.859375 194.925781 374.574219 194.359375 374.195312 194.042969 C 373.410156 193.421875 372.832031 193.449219 372.375 193.398438 C 371.910156 193.378906 371.519531 193.417969 371.140625 193.46875 C 368.246094 193.984375 365.921875 195.085938 363.535156 196.199219 L 361.789062 197.082031 C 361.578125 197.191406 361.207031 197.378906 360.988281 197.472656 C 360.753906 197.578125 360.484375 197.683594 360.207031 197.789062 C 359.101562 198.203125 357.910156 198.535156 356.714844 198.835938 C 351.894531 200.007812 346.851562 200.617188 341.820312 201.011719 C 336.785156 201.417969 331.714844 201.589844 326.644531 201.53125 C 321.816406 201.476562 316.980469 201.21875 312.164062 200.761719 C 312.242188 200.226562 312.175781 199.515625 312.03125 198.726562 L 312.203125 198.722656 C 312.210938 196.664062 311.640625 194.621094 310.59375 192.824219 C 310.457031 192.601562 310.3125 192.378906 310.140625 192.167969 C 309.960938 191.96875 309.832031 191.765625 309.472656 191.597656 L 309.472656 191.578125 C 309.460938 191.476562 309.457031 191.359375 309.457031 191.238281 L 309.472656 190.5 L 309.589844 187.476562 C 309.628906 185.449219 309.578125 183.398438 309.203125 181.367188 C 308.816406 179.4375 308.140625 177.34375 306.4375 175.945312 C 305.480469 172.679688 304.445312 169.332031 302.777344 166.25 C 301.1875 163.265625 298.941406 160.476562 295.945312 158.648438 C 295.902344 156.539062 295.273438 154.667969 294.613281 152.828125 C 293.871094 150.863281 292.960938 148.976562 291.917969 147.160156 C 290.859375 145.347656 289.710938 143.589844 288.164062 142.011719 C 287.808594 141.632812 287.273438 141.210938 286.917969 140.9375 C 286.511719 140.621094 286.230469 140.339844 285.871094 139.992188 C 285.203125 139.304688 284.589844 138.539062 284.015625 137.738281 C 281.734375 134.507812 279.960938 130.832031 278.292969 127.140625 C 276.632812 123.433594 275.113281 119.644531 273.601562 115.84375 C 272.085938 112.042969 270.585938 108.222656 268.964844 104.433594 C 267.332031 100.648438 265.636719 96.867188 263.40625 93.253906 C 262.84375 92.351562 262.238281 91.464844 261.566406 90.605469 C 261.234375 90.179688 260.859375 89.746094 260.5 89.351562 L 259.472656 88.222656 L 255.359375 83.667969 C 252.613281 80.625 249.835938 77.59375 247 74.613281 C 244.164062 71.632812 241.269531 68.703125 238.300781 65.84375 C 236.816406 64.410156 235.300781 63.011719 233.769531 61.625 C 232.195312 60.214844 230.75 58.96875 229.363281 57.507812 C 227.957031 56.074219 226.539062 54.507812 224.839844 53.097656 C 223.148438 51.675781 221.164062 50.5 219.09375 49.703125 C 214.929688 48.101562 210.640625 47.699219 206.464844 47.519531 C 202.242188 47.390625 198.210938 47.539062 194.105469 47.535156 L 181.84375 47.574219 C 173.671875 47.554688 165.511719 47.421875 157.371094 47.039062 C 141.101562 46.222656 124.871094 44.644531 109.316406 39.972656 C 106.933594 39.3125 104.589844 39.433594 102.410156 39.726562 C 100.21875 40.042969 98.128906 40.59375 96.101562 41.269531 C 92.050781 42.617188 88.242188 44.421875 84.570312 46.417969 C 77.234375 50.445312 70.457031 55.296875 64.070312 60.585938 C 51.320312 71.191406 40.207031 83.652344 30.808594 97.261719 C 21.429688 110.886719 13.90625 125.804688 8.652344 141.488281 C 3.390625 157.164062 0.472656 173.628906 0.121094 190.144531 C -0.0585938 198.40625 0.382812 206.660156 1.421875 214.859375 C 2.617188 223.011719 4.394531 231.082031 6.632812 239 C 7.773438 242.953125 9.054688 246.863281 10.492188 250.714844 C 11.925781 254.570312 13.402344 258.410156 15.078125 262.167969 C 18.398438 269.695312 22.308594 276.957031 26.609375 283.984375 C 35.320312 297.964844 46.019531 310.832031 58.667969 321.566406 C 71.246094 332.363281 85.628906 341.070312 100.980469 347.425781 C 116.347656 353.773438 132.789062 357.492188 149.363281 358.5625 C 165.941406 359.59375 182.617188 358.050781 198.691406 354.273438 C 206.730469 352.351562 214.617188 349.90625 222.320312 347.003906 C 229.996094 344.027344 237.503906 340.65625 244.734375 336.777344 L 244.535156 336.371094 C 237.019531 339.617188 229.40625 342.59375 221.632812 345.039062 C 213.878906 347.558594 205.996094 349.609375 198.019531 351.136719 C 192.910156 352.148438 187.761719 352.9375 182.597656 353.503906 C 177.648438 343.441406 171.101562 326.628906 168.25 313.925781 C 166.394531 305.636719 156.691406 274.253906 155.667969 266.183594 C 154.460938 256.660156 151.507812 238.882812 148.917969 225.359375 C 142.582031 222.03125 136.953125 217.558594 131.90625 212.648438 C 130.371094 211.152344 128.886719 209.605469 127.453125 208.019531 L 125.335938 205.632812 C 124.660156 204.867188 123.925781 203.957031 123.394531 203.484375 C 121.660156 201.902344 120.191406 199.941406 119.144531 197.847656 C 118.085938 195.753906 117.441406 193.578125 116.828125 191.621094 C 116.222656 189.660156 115.589844 187.941406 114.578125 186.722656 C 113.59375 185.496094 112.148438 184.660156 110.398438 184.101562 C 109.539062 183.824219 108.601562 183.613281 107.671875 183.460938 L 106.941406 183.347656 L 106.542969 183.289062 C 106.339844 183.257812 106.136719 183.222656 105.964844 183.179688 C 105.238281 183 104.648438 182.765625 104.082031 182.515625 C 101.882812 181.488281 100.105469 180.238281 98.34375 178.945312 C 94.863281 176.332031 91.691406 173.46875 88.648438 170.457031 C 85.621094 167.4375 82.738281 164.269531 80.132812 160.8125 C 78.832031 159.078125 77.589844 157.285156 76.503906 155.3125 C 75.960938 154.332031 75.457031 153.296875 75.042969 152.164062 C 74.625 150.972656 74.398438 149.902344 74.183594 148.800781 C 73.765625 146.589844 73.617188 144.429688 73.390625 142.410156 C 73.171875 140.382812 72.84375 138.449219 72.308594 136.542969 C 71.257812 132.726562 69.476562 129.050781 67.484375 125.46875 C 65.484375 121.890625 63.21875 118.40625 60.851562 115.007812 C 60.269531 114.160156 59.625 113.3125 59.015625 112.320312 C 58.425781 111.347656 57.902344 110.324219 57.480469 109.25 C 56.625 107.105469 56.214844 104.738281 56.339844 102.417969 C 56.589844 97.707031 58.875 93.5625 61.59375 90.191406 C 64.351562 86.789062 67.628906 83.964844 71.066406 81.4375 C 74.515625 78.921875 78.140625 76.699219 81.878906 74.710938 C 89.371094 70.765625 97.214844 67.59375 105.242188 65.042969 C 113.257812 62.558594 121.515625 60.410156 129.933594 60.28125 C 125.742188 60.511719 121.632812 61.402344 117.585938 62.445312 C 113.542969 63.488281 109.550781 64.75 105.621094 66.167969 C 97.773438 69.019531 90.140625 72.476562 82.945312 76.640625 C 79.351562 78.71875 75.847656 80.949219 72.589844 83.46875 C 69.335938 85.980469 66.28125 88.765625 63.832031 91.953125 C 61.398438 95.113281 59.585938 98.785156 59.492188 102.546875 C 59.441406 104.414062 59.808594 106.269531 60.546875 108.003906 C 60.914062 108.871094 61.367188 109.710938 61.886719 110.519531 C 62.390625 111.304688 63.03125 112.113281 63.660156 112.980469 C 66.167969 116.40625 68.574219 119.898438 70.757812 123.589844 C 72.925781 127.28125 74.867188 131.195312 76.117188 135.460938 C 76.738281 137.582031 77.144531 139.796875 77.398438 141.933594 C 77.664062 144.078125 77.835938 146.105469 78.226562 148.015625 C 78.417969 148.972656 78.652344 149.953125 78.945312 150.734375 C 79.261719 151.570312 79.683594 152.425781 80.164062 153.269531 C 81.125 154.964844 82.292969 156.613281 83.527344 158.214844 C 88.5625 164.578125 94.523438 170.507812 100.976562 175.390625 C 102.589844 176.578125 104.289062 177.71875 105.902344 178.453125 C 106.796875 178.855469 107.046875 178.855469 108.375 179.050781 C 109.515625 179.234375 110.625 179.476562 111.761719 179.839844 C 114 180.527344 116.386719 181.800781 118.054688 183.863281 C 119.738281 185.90625 120.503906 188.25 121.148438 190.257812 C 121.78125 192.304688 122.335938 194.167969 123.171875 195.828125 C 123.996094 197.488281 125.078125 198.941406 126.433594 200.195312 C 127.445312 201.148438 127.996094 201.90625 128.714844 202.707031 L 130.757812 205.035156 C 132.132812 206.566406 133.542969 208.054688 135.003906 209.492188 C 140.828125 215.222656 147.4375 220.207031 154.808594 223.410156 C 158.488281 225.007812 162.355469 226.125 166.304688 226.589844 C 166.796875 226.65625 167.292969 226.695312 167.785156 226.742188 C 168.257812 226.769531 168.882812 226.824219 169.011719 226.800781 C 169.433594 226.761719 169.890625 226.539062 170.390625 225.992188 C 171.390625 224.890625 172.148438 223.023438 172.703125 221.167969 C 173.820312 217.375 174.371094 213.253906 174.84375 209.152344 C 175.308594 205.039062 175.632812 200.863281 175.925781 196.699219 C 177.027344 180.015625 177.488281 163.261719 176.886719 146.550781 C 176.621094 138.195312 176.078125 129.839844 174.890625 121.566406 C 174.285156 117.433594 173.515625 113.320312 172.429688 109.289062 C 171.347656 105.265625 169.984375 101.265625 167.773438 97.691406 C 170.179688 101.140625 171.777344 105.101562 173.082031 109.097656 C 174.355469 113.113281 175.292969 117.230469 176.070312 121.371094 C 177.605469 129.65625 178.492188 138.042969 179.101562 146.4375 C 179.9375 159.75 180.058594 173.085938 179.734375 186.414062 L 182.675781 187.203125 C 182.328125 187.152344 181.984375 187.101562 181.636719 187.039062 C 184.589844 188.589844 187.882812 189.253906 191.011719 190.140625 C 194.179688 190.9375 197.316406 191.738281 200.359375 192.660156 C 203.371094 193.636719 206.371094 194.636719 208.878906 196.195312 C 209.503906 196.574219 210.109375 196.960938 210.65625 197.394531 C 210.933594 197.609375 211.191406 197.835938 211.445312 198.0625 L 212.40625 198.929688 C 213.710938 200.050781 215.046875 201.09375 216.433594 202.066406 C 219.21875 203.984375 222.136719 205.683594 225.222656 207.078125 C 228.316406 208.4375 231.527344 209.644531 234.980469 210.164062 C 236.703125 210.417969 238.480469 210.574219 240.28125 210.339844 C 242.066406 210.117188 243.921875 209.546875 245.425781 208.398438 C 246.921875 207.246094 247.933594 205.605469 248.382812 203.929688 C 248.851562 202.253906 248.902344 200.558594 248.738281 198.921875 C 248.761719 198.285156 248.769531 197.71875 248.773438 197.210938 C 248.160156 196.898438 247.554688 196.585938 246.976562 196.28125 L 245.132812 194.664062 C 245.128906 194.664062 245.128906 194.664062 245.125 194.664062 C 245.125 194.664062 245.121094 194.664062 245.117188 194.664062 C 243.742188 194.625 242.398438 194.476562 241.007812 194.214844 L 240.46875 194.101562 L 239.835938 193.949219 C 239.410156 193.835938 238.996094 193.707031 238.597656 193.558594 C 237.792969 193.265625 237.023438 192.921875 236.304688 192.515625 C 230.601562 189.15625 226.980469 184.261719 223.472656 179.585938 C 221.71875 177.238281 220.09375 174.828125 218.328125 172.574219 C 217.460938 171.425781 216.542969 170.339844 215.539062 169.339844 C 214.53125 168.355469 213.417969 167.441406 211.996094 167.015625 C 213.5 166.9375 214.992188 167.589844 216.292969 168.351562 C 217.609375 169.125 218.78125 170.09375 219.925781 171.0625 C 222.160156 173.058594 224.199219 175.207031 226.171875 177.351562 C 228.191406 179.460938 230.078125 181.632812 232.121094 183.566406 C 234.136719 185.511719 236.21875 187.359375 238.472656 188.550781 C 239.03125 188.84375 239.589844 189.121094 240.152344 189.328125 C 240.4375 189.4375 240.71875 189.527344 241 189.609375 L 241.425781 189.714844 L 241.957031 189.832031 C 243.210938 190.117188 244.570312 190.300781 245.882812 190.375 C 248.539062 190.582031 251.199219 190.136719 253.953125 189.539062 C 256.695312 188.910156 259.5625 187.996094 262.667969 187.703125 C 264.210938 187.59375 265.800781 187.652344 267.296875 188.03125 C 268.796875 188.40625 270.1875 189.050781 271.402344 189.902344 C 270.375 189.609375 269.355469 189.429688 268.34375 189.347656 C 268.28125 189.339844 268.21875 189.332031 268.15625 189.328125 C 268.121094 189.328125 268.085938 189.328125 268.050781 189.328125 C 267.976562 189.320312 267.902344 189.320312 267.824219 189.316406 C 276.765625 193.921875 286.363281 197.183594 296.164062 199.492188 C 306.136719 201.8125 316.339844 203.128906 326.589844 203.601562 C 336.839844 204.015625 347.148438 203.796875 357.382812 201.632812 C 358.664062 201.335938 359.941406 200.988281 361.222656 200.519531 C 361.542969 200.402344 361.867188 200.277344 362.214844 200.121094 C 362.578125 199.964844 362.78125 199.859375 363.136719 199.679688 L 364.808594 198.851562 C 366.980469 197.832031 369.3125 196.832031 371.421875 196.460938 C 370.882812 197.183594 370.140625 197.945312 369.386719 198.652344 C 367.585938 200.300781 365.613281 201.917969 363.601562 203.246094 C 359.5 205.914062 354.816406 207.742188 350.023438 209.160156 C 345.210938 210.5625 340.238281 211.5 335.238281 212.28125 C 330.234375 213.042969 325.179688 213.574219 320.113281 213.988281 C 317.585938 214.179688 315.023438 214.398438 312.523438 214.484375 C 310.003906 214.558594 307.476562 214.480469 304.949219 214.296875 C 298.195312 213.765625 291.492188 212.539062 284.890625 210.855469 C 281.621094 210.019531 278.378906 209.085938 275.171875 208.054688 C 271.585938 206.890625 268.039062 205.621094 264.527344 204.25 C 259.171875 202.148438 253.914062 199.785156 248.773438 197.191406 C 248.175781 196.886719 247.574219 196.589844 246.976562 196.28125 C 247.574219 196.59375 248.175781 196.898438 248.773438 197.207031 C 249.132812 197.390625 249.492188 197.578125 249.855469 197.757812 C 250.535156 198.101562 251.242188 198.449219 251.960938 198.796875 C 256.101562 200.820312 260.3125 202.699219 264.582031 204.433594 C 268.46875 218.449219 277.816406 259.992188 268.097656 277.707031 C 258.199219 295.753906 242.578125 291.792969 239.277344 290.03125 C 235.976562 288.269531 233.554688 284.53125 235.976562 280.789062 C 238.398438 277.046875 235.976562 272.429688 234.878906 271.769531 C 233.777344 271.105469 233.335938 269.125 235.316406 267.585938 C 237.296875 266.042969 237.957031 262.523438 233.554688 262.082031 C 229.160156 261.644531 215.738281 268.027344 214.414062 276.609375 C 213.09375 285.191406 216.617188 304.996094 227.617188 310.28125 C 238.617188 315.558594 251.820312 320.625 272.058594 313.359375 C 292.300781 306.09375 300.4375 291.351562 305.0625 279.910156 C 309.628906 268.597656 316.648438 250.277344 314.253906 216.042969 C 316.257812 216 318.230469 215.902344 320.230469 215.820312 C 325.335938 215.574219 330.449219 215.210938 335.554688 214.609375 C 340.652344 214.015625 345.746094 213.148438 350.761719 211.792969 C 355.761719 210.445312 360.730469 208.605469 365.203125 205.71875 C 367.460938 204.242188 369.445312 202.628906 371.421875 200.851562 C 372.398438 199.925781 373.359375 199.03125 374.230469 197.726562 C 374.445312 197.382812 374.660156 197.015625 374.820312 196.464844 C 374.898438 196.183594 374.964844 195.835938 374.910156 195.378906 "/></g><path style=" stroke:none;fill-rule:nonzero;fill:#231f20;fill-opacity:1;" d="M 363.378906 191.320312 C 363.371094 191.304688 363.359375 191.285156 363.355469 191.261719 C 363.363281 191.246094 363.375 191.277344 363.378906 191.320312 Z M 313.199219 194.742188 C 318.128906 196.046875 323.171875 196.847656 328.242188 197.328125 C 333.316406 197.824219 338.433594 197.941406 343.566406 197.621094 C 348.664062 197.167969 353.925781 196.5625 358.738281 193.933594 C 359.976562 193.195312 360.847656 192.476562 361.898438 191.925781 C 362.390625 191.65625 362.949219 191.417969 363.292969 191.375 C 363.351562 191.375 363.378906 191.371094 363.390625 191.367188 C 363.402344 191.449219 363.402344 191.566406 363.378906 191.683594 C 363.21875 192.695312 362.550781 193.820312 361.847656 194.796875 C 361.117188 195.777344 360.265625 196.707031 359.179688 197.382812 C 360.40625 196.996094 361.511719 196.242188 362.472656 195.359375 C 363.417969 194.4375 364.296875 193.464844 364.820312 192.03125 C 364.921875 191.65625 365.050781 191.214844 364.820312 190.589844 C 364.699219 190.28125 364.414062 189.972656 364.113281 189.835938 C 363.816406 189.691406 363.535156 189.648438 363.300781 189.640625 C 362.375 189.632812 361.734375 189.890625 361.078125 190.125 C 359.804688 190.59375 358.632812 191.402344 357.640625 191.851562 C 355.507812 192.796875 353.132812 193.394531 350.71875 193.78125 C 348.304688 194.195312 345.835938 194.460938 343.355469 194.605469 C 338.402344 194.980469 333.386719 194.992188 328.359375 194.980469 L 313.199219 194.742188 "/><path style=" stroke:none;fill-rule:nonzero;fill:#231f20;fill-opacity:1;" d="M 195.765625 27.300781 C 207.605469 30.042969 219.179688 33.828125 230.128906 38.996094 C 241.105469 44.066406 251.554688 50.277344 261.136719 57.640625 C 280.390625 72.226562 296.582031 90.878906 308.246094 112.222656 C 319.941406 133.5625 327.058594 157.472656 329.433594 182.261719 C 330.855469 157.363281 325.554688 131.851562 314.539062 108.996094 C 303.570312 86.101562 286.984375 65.773438 266.597656 50.414062 C 256.371094 42.789062 245.316406 36.257812 233.621094 31.1875 C 221.902344 26.203125 209.65625 22.414062 197.121094 20.386719 C 172.125 16.144531 146.167969 17.953125 122.597656 26.097656 C 147.082031 21.613281 172.023438 21.980469 195.765625 27.300781 "/></g></svg>