<svg xmlns="http://www.w3.org/2000/svg" xmlns:xlink="http://www.w3.org/1999/xlink" width="500" zoomAndPan="magnify" viewBox="0 0 375 374.999991" height="500" preserveAspectRatio="xMidYMid meet" version="1.2"><defs><clipPath id="4eefa0467b"><path d="M 0.0820312 39 L 374.933594 39 L 374.933594 358.78125 L 0.0820312 358.78125 Z M 0.0820312 39 "/></clipPath></defs><g id="4420c9300f"><g clip-rule="nonzero" clip-path="url(#4eefa0467b)"><path style=" stroke:none;fill-rule:nonzero;fill:#ffffff;fill-opacity:1;" d="M 292.800781 213.578125 L 292.152344 213.347656 C 292.507812 213.429688 292.863281 213.523438 293.21875 213.601562 Z M 244.695312 123.316406 C 243.78125 123.117188 242.871094 122.78125 242.035156 122.328125 C 240.699219 122.011719 239.289062 121.917969 237.886719 122.035156 C 236.6875 122.109375 235.546875 122.335938 234.265625 122.503906 C 232.984375 122.644531 231.644531 122.613281 230.347656 122.304688 C 227.746094 121.675781 225.535156 119.988281 223.910156 118.039062 C 222.289062 116.058594 221.121094 113.746094 220.691406 111.292969 L 220.660156 111.105469 L 220.847656 111.082031 C 223.21875 110.789062 225.570312 110.617188 227.910156 110.5 L 229.660156 110.417969 C 230.230469 110.394531 230.960938 110.410156 231.617188 110.488281 C 232.976562 110.636719 234.324219 111.167969 235.492188 111.890625 C 237.832031 113.421875 239.179688 115.59375 240.539062 117.378906 C 241.917969 119.167969 243.289062 120.726562 245.230469 121.667969 L 245.230469 121.675781 C 245.242188 121.679688 245.253906 121.679688 245.265625 121.683594 Z M 83.746094 323.105469 C 84.394531 317.457031 85.21875 311.863281 86.140625 306.289062 C 87.246094 299.59375 88.441406 292.925781 89.808594 286.28125 L 91.9375 276.339844 C 92.71875 273.035156 93.421875 269.722656 94.28125 266.433594 C 95.917969 259.84375 97.683594 253.273438 99.902344 246.789062 C 99.523438 253.628906 98.71875 260.386719 97.734375 267.109375 C 97.285156 270.484375 96.671875 273.820312 96.128906 277.171875 C 95.574219 280.308594 94.960938 283.429688 94.363281 286.550781 L 95.238281 287.894531 C 95.070312 287.722656 94.90625 287.546875 94.734375 287.382812 C 95.988281 289.953125 97.035156 292.589844 98.171875 295.199219 C 99.316406 297.796875 100.445312 300.398438 101.652344 302.96875 C 104.039062 308.113281 106.523438 313.21875 109.1875 318.230469 C 111.886719 323.226562 114.621094 328.203125 117.675781 333.027344 C 119.191406 335.453125 120.757812 337.828125 122.539062 340.15625 C 122.765625 340.433594 123.019531 340.742188 123.277344 341.027344 L 123.980469 341.789062 C 124.433594 342.300781 124.859375 342.859375 125.304688 343.40625 L 127 345.597656 L 129.496094 350.96875 C 120.371094 349.070312 111.410156 346.398438 102.738281 342.976562 C 95.464844 340.125 88.429688 336.6875 81.675781 332.753906 Z M 112.570312 257.644531 C 116.851562 255.507812 120.84375 252.835938 122.855469 248.753906 C 124.089844 246.5625 125.402344 244.363281 127.148438 242.394531 C 128.019531 241.414062 129.011719 240.492188 130.121094 239.71875 C 131.222656 238.929688 132.46875 238.394531 133.578125 237.90625 C 134.136719 237.660156 134.671875 237.421875 135.175781 237.152344 C 135.367188 237.0625 135.6875 236.859375 135.9375 236.71875 C 136.164062 236.5625 136.382812 236.429688 136.609375 236.257812 C 137.523438 235.582031 138.332031 234.734375 139.085938 233.820312 C 140.566406 231.960938 141.710938 229.773438 142.804688 227.550781 C 142.277344 229.972656 141.5 232.363281 140.222656 234.597656 C 139.578125 235.710938 138.765625 236.746094 137.808594 237.671875 C 137.574219 237.902344 137.289062 238.128906 137.03125 238.351562 C 136.761719 238.546875 136.589844 238.707031 136.246094 238.929688 C 135.699219 239.296875 135.132812 239.625 134.59375 239.925781 C 132.410156 241.097656 130.734375 242.363281 129.304688 244.21875 C 127.875 246.027344 126.625 248.066406 125.507812 250.195312 C 124.296875 252.527344 122.40625 254.648438 120.3125 256.1875 C 118.179688 257.726562 115.882812 258.914062 113.515625 259.800781 C 108.792969 261.632812 103.929688 262.554688 99.074219 263.519531 C 103.554688 261.359375 108.261719 259.78125 112.570312 257.644531 Z M 24.59375 253.449219 C 24.925781 259.269531 25.988281 265.042969 27.4375 270.917969 C 24.253906 265.78125 22.121094 259.921875 21.097656 253.859375 C 20.53125 250.839844 20.328125 247.769531 20.207031 244.714844 C 20.132812 241.71875 20.140625 238.730469 20.105469 235.742188 C 20.117188 229.765625 20.324219 223.804688 20.609375 217.839844 C 20.855469 211.871094 21.40625 205.941406 21.6875 199.929688 C 22.570312 202.839844 22.941406 205.855469 23.351562 208.835938 C 23.695312 211.828125 23.972656 214.820312 24.148438 217.816406 C 24.511719 223.804688 24.671875 229.785156 24.632812 235.761719 L 24.488281 244.714844 C 24.359375 247.632812 24.460938 250.539062 24.59375 253.449219 Z M 309.332031 191.503906 C 309.328125 191.5 309.328125 191.5 309.324219 191.5 C 309.300781 191.496094 309.3125 191.496094 309.332031 191.503906 Z M 311.4375 196.386719 C 311.171875 195.558594 310.871094 194.746094 310.570312 194.039062 C 310.941406 194.785156 311.234375 195.574219 311.4375 196.386719 Z M 374.910156 195.328125 C 374.859375 194.875 374.574219 194.308594 374.195312 193.996094 C 373.410156 193.375 372.832031 193.402344 372.375 193.347656 C 371.910156 193.328125 371.519531 193.371094 371.140625 193.421875 C 368.246094 193.9375 365.921875 195.039062 363.535156 196.152344 L 361.789062 197.035156 C 361.578125 197.140625 361.207031 197.332031 360.988281 197.421875 C 360.753906 197.527344 360.484375 197.632812 360.207031 197.742188 C 359.101562 198.15625 357.910156 198.484375 356.714844 198.785156 C 351.894531 199.957031 346.851562 200.566406 341.820312 200.964844 C 336.785156 201.367188 331.714844 201.539062 326.644531 201.480469 C 321.816406 201.425781 316.980469 201.171875 312.164062 200.710938 C 312.242188 200.175781 312.175781 199.464844 312.03125 198.675781 L 312.203125 198.675781 C 312.210938 196.613281 311.640625 194.570312 310.59375 192.777344 C 310.457031 192.550781 310.3125 192.332031 310.140625 192.121094 C 309.960938 191.921875 309.832031 191.71875 309.472656 191.550781 L 309.472656 191.527344 C 309.460938 191.429688 309.457031 191.308594 309.457031 191.191406 L 309.472656 190.453125 L 309.589844 187.429688 C 309.628906 185.402344 309.578125 183.355469 309.203125 181.320312 C 308.816406 179.394531 308.140625 177.300781 306.4375 175.902344 C 305.480469 172.636719 304.445312 169.292969 302.777344 166.207031 C 301.1875 163.226562 298.941406 160.4375 295.945312 158.609375 C 295.902344 156.5 295.273438 154.628906 294.613281 152.792969 C 293.871094 150.824219 292.960938 148.941406 291.917969 147.125 C 290.859375 145.3125 289.710938 143.554688 288.164062 141.976562 C 287.808594 141.601562 287.273438 141.175781 286.917969 140.902344 C 286.511719 140.585938 286.230469 140.308594 285.871094 139.957031 C 285.203125 139.269531 284.589844 138.503906 284.015625 137.707031 C 281.734375 134.476562 279.960938 130.800781 278.292969 127.113281 C 276.632812 123.402344 275.113281 119.613281 273.601562 115.816406 C 272.085938 112.015625 270.585938 108.199219 268.964844 104.410156 C 267.332031 100.625 265.636719 96.84375 263.40625 93.230469 C 262.84375 92.332031 262.238281 91.445312 261.566406 90.585938 C 261.234375 90.160156 260.859375 89.726562 260.5 89.332031 L 259.472656 88.203125 L 255.359375 83.648438 C 252.613281 80.605469 249.835938 77.574219 247 74.597656 C 244.164062 71.617188 241.269531 68.6875 238.300781 65.828125 C 236.816406 64.398438 235.300781 63 233.769531 61.613281 C 232.195312 60.203125 230.75 58.957031 229.363281 57.496094 C 227.957031 56.0625 226.539062 54.5 224.839844 53.085938 C 223.148438 51.667969 221.164062 50.492188 219.09375 49.691406 C 214.929688 48.09375 210.640625 47.6875 206.464844 47.511719 C 202.242188 47.378906 198.210938 47.53125 194.105469 47.527344 L 181.84375 47.566406 C 173.671875 47.546875 165.511719 47.414062 157.371094 47.03125 C 141.101562 46.214844 124.871094 44.636719 109.316406 39.96875 C 106.933594 39.308594 104.589844 39.429688 102.410156 39.71875 C 100.21875 40.035156 98.128906 40.589844 96.101562 41.261719 C 92.050781 42.609375 88.242188 44.414062 84.570312 46.410156 C 77.234375 50.433594 70.457031 55.289062 64.070312 60.574219 C 51.320312 71.175781 40.207031 83.636719 30.808594 97.238281 C 21.429688 110.863281 13.90625 125.773438 8.652344 141.453125 C 3.390625 157.128906 0.472656 173.585938 0.121094 190.097656 C -0.0585938 198.355469 0.382812 206.609375 1.421875 214.804688 C 2.617188 222.953125 4.394531 231.023438 6.632812 238.9375 C 7.773438 242.890625 9.054688 246.800781 10.492188 250.652344 C 11.925781 254.507812 13.402344 258.34375 15.078125 262.101562 C 18.398438 269.628906 22.308594 276.886719 26.609375 283.910156 C 35.320312 297.886719 46.019531 310.75 58.667969 321.480469 C 71.246094 332.277344 85.628906 340.980469 100.980469 347.335938 C 116.347656 353.683594 132.789062 357.398438 149.363281 358.46875 C 165.941406 359.5 182.617188 357.957031 198.691406 354.183594 C 206.730469 352.261719 214.617188 349.816406 222.320312 346.914062 C 229.996094 343.9375 237.503906 340.566406 244.734375 336.691406 L 244.535156 336.28125 C 237.019531 339.527344 229.40625 342.503906 221.632812 344.949219 C 213.878906 347.46875 205.996094 349.519531 198.019531 351.042969 C 192.910156 352.054688 187.761719 352.84375 182.597656 353.410156 C 177.648438 343.351562 171.101562 326.546875 168.25 313.84375 C 166.394531 305.554688 156.691406 274.183594 155.667969 266.113281 C 154.460938 256.59375 151.507812 238.824219 148.917969 225.304688 C 142.582031 221.972656 136.953125 217.503906 131.90625 212.597656 C 130.371094 211.097656 128.886719 209.550781 127.453125 207.96875 L 125.335938 205.578125 C 124.660156 204.816406 123.925781 203.90625 123.394531 203.433594 C 121.660156 201.851562 120.191406 199.890625 119.144531 197.796875 C 118.085938 195.703125 117.441406 193.53125 116.828125 191.574219 C 116.222656 189.613281 115.589844 187.894531 114.578125 186.675781 C 113.59375 185.449219 112.148438 184.613281 110.398438 184.054688 C 109.539062 183.777344 108.601562 183.566406 107.671875 183.414062 L 106.941406 183.300781 L 106.542969 183.242188 C 106.339844 183.210938 106.136719 183.175781 105.964844 183.132812 C 105.238281 182.957031 104.648438 182.71875 104.082031 182.46875 C 101.882812 181.445312 100.105469 180.191406 98.34375 178.898438 C 94.863281 176.289062 91.691406 173.425781 88.648438 170.417969 C 85.621094 167.394531 82.738281 164.226562 80.132812 160.773438 C 78.832031 159.039062 77.589844 157.246094 76.503906 155.277344 C 75.960938 154.292969 75.457031 153.257812 75.042969 152.125 C 74.625 150.9375 74.398438 149.863281 74.183594 148.765625 C 73.765625 146.554688 73.617188 144.394531 73.390625 142.375 C 73.171875 140.347656 72.84375 138.417969 72.308594 136.507812 C 71.257812 132.695312 69.476562 129.019531 67.484375 125.441406 C 65.484375 121.863281 63.21875 118.378906 60.851562 114.980469 C 60.269531 114.132812 59.625 113.285156 59.015625 112.292969 C 58.425781 111.320312 57.902344 110.296875 57.480469 109.222656 C 56.625 107.078125 56.214844 104.714844 56.339844 102.394531 C 56.589844 97.6875 58.875 93.539062 61.59375 90.171875 C 64.351562 86.769531 67.628906 83.945312 71.066406 81.417969 C 74.515625 78.90625 78.140625 76.683594 81.878906 74.691406 C 89.371094 70.75 97.214844 67.582031 105.242188 65.027344 C 113.257812 62.546875 121.515625 60.398438 129.933594 60.265625 C 125.742188 60.5 121.632812 61.390625 117.585938 62.433594 C 113.542969 63.476562 109.550781 64.738281 105.621094 66.15625 C 97.773438 69.003906 90.140625 72.460938 82.945312 76.621094 C 79.351562 78.699219 75.847656 80.929688 72.589844 83.449219 C 69.335938 85.960938 66.28125 88.746094 63.832031 91.933594 C 61.398438 95.09375 59.585938 98.761719 59.492188 102.523438 C 59.441406 104.390625 59.808594 106.246094 60.546875 107.980469 C 60.914062 108.847656 61.367188 109.6875 61.886719 110.492188 C 62.390625 111.277344 63.03125 112.089844 63.660156 112.957031 C 66.167969 116.378906 68.574219 119.871094 70.757812 123.558594 C 72.925781 127.25 74.867188 131.164062 76.117188 135.425781 C 76.738281 137.550781 77.144531 139.761719 77.398438 141.898438 C 77.664062 144.042969 77.835938 146.070312 78.226562 147.980469 C 78.417969 148.933594 78.652344 149.914062 78.945312 150.699219 C 79.261719 151.53125 79.683594 152.386719 80.164062 153.234375 C 81.125 154.925781 82.292969 156.574219 83.527344 158.175781 C 88.5625 164.535156 94.523438 170.46875 100.976562 175.347656 C 102.589844 176.53125 104.289062 177.675781 105.902344 178.40625 C 106.796875 178.8125 107.046875 178.8125 108.375 179.007812 C 109.515625 179.191406 110.625 179.433594 111.761719 179.792969 C 114 180.480469 116.386719 181.753906 118.054688 183.816406 C 119.738281 185.859375 120.503906 188.203125 121.148438 190.210938 C 121.78125 192.257812 122.335938 194.121094 123.171875 195.78125 C 123.996094 197.4375 125.078125 198.894531 126.433594 200.144531 C 127.445312 201.097656 127.996094 201.855469 128.714844 202.65625 L 130.757812 204.984375 C 132.132812 206.511719 133.542969 208 135.003906 209.4375 C 140.828125 215.171875 147.4375 220.148438 154.808594 223.351562 C 158.488281 224.953125 162.355469 226.066406 166.304688 226.53125 C 166.796875 226.597656 167.292969 226.636719 167.785156 226.683594 C 168.257812 226.710938 168.882812 226.765625 169.011719 226.742188 C 169.433594 226.703125 169.890625 226.480469 170.390625 225.933594 C 171.390625 224.835938 172.148438 222.964844 172.703125 221.113281 C 173.820312 217.320312 174.371094 213.199219 174.84375 209.097656 C 175.308594 204.984375 175.632812 200.8125 175.925781 196.648438 C 177.027344 179.96875 177.488281 163.21875 176.886719 146.515625 C 176.621094 138.164062 176.078125 129.808594 174.890625 121.539062 C 174.285156 117.40625 173.515625 113.292969 172.429688 109.261719 C 171.347656 105.238281 169.984375 101.242188 167.773438 97.667969 C 170.179688 101.117188 171.777344 105.078125 173.082031 109.070312 C 174.355469 113.085938 175.292969 117.203125 176.070312 121.34375 C 177.605469 129.625 178.492188 138.007812 179.101562 146.398438 C 179.9375 159.710938 180.058594 173.042969 179.734375 186.367188 L 182.675781 187.15625 C 182.328125 187.105469 181.984375 187.054688 181.636719 186.992188 C 184.589844 188.539062 187.882812 189.207031 191.011719 190.09375 C 194.179688 190.890625 197.316406 191.691406 200.359375 192.613281 C 203.371094 193.589844 206.371094 194.589844 208.878906 196.144531 C 209.503906 196.527344 210.109375 196.914062 210.65625 197.34375 C 210.933594 197.558594 211.191406 197.785156 211.445312 198.015625 L 212.40625 198.878906 C 213.710938 200 215.046875 201.042969 216.433594 202.015625 C 219.21875 203.933594 222.136719 205.628906 225.222656 207.027344 C 228.316406 208.382812 231.527344 209.59375 234.980469 210.113281 C 236.703125 210.363281 238.480469 210.519531 240.28125 210.285156 C 242.066406 210.0625 243.921875 209.496094 245.425781 208.34375 C 246.921875 207.195312 247.933594 205.550781 248.382812 203.878906 C 248.851562 202.203125 248.902344 200.511719 248.738281 198.871094 C 248.761719 198.234375 248.769531 197.667969 248.773438 197.164062 C 248.160156 196.847656 247.554688 196.535156 246.976562 196.230469 L 245.132812 194.617188 C 245.128906 194.617188 245.128906 194.617188 245.125 194.617188 C 245.125 194.617188 245.121094 194.617188 245.117188 194.617188 C 243.742188 194.578125 242.398438 194.425781 241.007812 194.164062 L 240.46875 194.054688 L 239.835938 193.902344 C 239.410156 193.789062 238.996094 193.660156 238.597656 193.511719 C 237.792969 193.21875 237.023438 192.871094 236.304688 192.46875 C 230.601562 189.109375 226.980469 184.214844 223.472656 179.542969 C 221.71875 177.191406 220.09375 174.785156 218.328125 172.53125 C 217.460938 171.386719 216.542969 170.300781 215.539062 169.296875 C 214.53125 168.3125 213.417969 167.402344 211.996094 166.972656 C 213.5 166.898438 214.992188 167.546875 216.292969 168.308594 C 217.609375 169.085938 218.78125 170.050781 219.925781 171.019531 C 222.160156 173.015625 224.199219 175.160156 226.171875 177.308594 C 228.191406 179.414062 230.078125 181.585938 232.121094 183.523438 C 234.136719 185.464844 236.21875 187.3125 238.472656 188.5 C 239.03125 188.796875 239.589844 189.070312 240.152344 189.28125 C 240.4375 189.390625 240.71875 189.480469 241 189.5625 L 241.425781 189.667969 L 241.957031 189.785156 C 243.210938 190.066406 244.570312 190.253906 245.882812 190.324219 C 248.539062 190.53125 251.199219 190.089844 253.953125 189.492188 C 256.695312 188.863281 259.5625 187.949219 262.667969 187.65625 C 264.210938 187.546875 265.800781 187.605469 267.296875 187.984375 C 268.796875 188.359375 270.1875 189.003906 271.402344 189.855469 C 270.375 189.5625 269.355469 189.378906 268.34375 189.300781 C 268.28125 189.292969 268.21875 189.285156 268.15625 189.28125 C 268.121094 189.277344 268.085938 189.277344 268.050781 189.277344 C 267.976562 189.273438 267.902344 189.273438 267.824219 189.269531 C 276.765625 193.871094 286.363281 197.136719 296.164062 199.441406 C 306.136719 201.761719 316.339844 203.078125 326.589844 203.546875 C 336.839844 203.960938 347.148438 203.746094 357.382812 201.582031 C 358.664062 201.285156 359.941406 200.9375 361.222656 200.472656 C 361.542969 200.351562 361.867188 200.226562 362.214844 200.070312 C 362.578125 199.914062 362.78125 199.8125 363.136719 199.632812 L 364.808594 198.800781 C 366.980469 197.785156 369.3125 196.785156 371.421875 196.414062 C 370.882812 197.136719 370.140625 197.898438 369.386719 198.601562 C 367.585938 200.25 365.613281 201.867188 363.601562 203.195312 C 359.5 205.863281 354.816406 207.6875 350.023438 209.105469 C 345.210938 210.507812 340.238281 211.445312 335.238281 212.226562 C 330.234375 212.988281 325.179688 213.519531 320.113281 213.933594 C 317.585938 214.125 315.023438 214.34375 312.523438 214.433594 C 310.003906 214.503906 307.476562 214.425781 304.949219 214.242188 C 298.195312 213.710938 291.492188 212.484375 284.890625 210.800781 C 281.621094 209.96875 278.378906 209.03125 275.171875 208 C 271.585938 206.839844 268.039062 205.570312 264.527344 204.195312 C 259.171875 202.097656 253.914062 199.734375 248.773438 197.140625 C 248.175781 196.839844 247.574219 196.542969 246.976562 196.230469 C 247.574219 196.542969 248.175781 196.847656 248.773438 197.15625 C 249.132812 197.339844 249.492188 197.527344 249.855469 197.707031 C 250.535156 198.050781 251.242188 198.398438 251.960938 198.746094 C 256.101562 200.769531 260.3125 202.648438 264.582031 204.382812 C 268.46875 218.394531 277.816406 259.925781 268.097656 277.632812 C 258.199219 295.679688 242.578125 291.71875 239.277344 289.957031 C 235.976562 288.195312 233.554688 284.457031 235.976562 280.714844 C 238.398438 276.976562 235.976562 272.359375 234.878906 271.699219 C 233.777344 271.035156 233.335938 269.054688 235.316406 267.519531 C 237.296875 265.972656 237.957031 262.457031 233.554688 262.015625 C 229.160156 261.578125 215.738281 267.957031 214.414062 276.535156 C 213.09375 285.117188 216.617188 304.917969 227.617188 310.199219 C 238.617188 315.476562 251.820312 320.539062 272.058594 313.277344 C 292.300781 306.015625 300.4375 291.277344 305.0625 279.835938 C 309.628906 268.527344 316.648438 250.214844 314.253906 215.988281 C 316.257812 215.945312 318.230469 215.847656 320.230469 215.765625 C 325.335938 215.519531 330.449219 215.15625 335.554688 214.554688 C 340.652344 213.960938 345.746094 213.09375 350.761719 211.742188 C 355.761719 210.390625 360.730469 208.550781 365.203125 205.667969 C 367.460938 204.191406 369.445312 202.578125 371.421875 200.800781 C 372.398438 199.878906 373.359375 198.984375 374.230469 197.675781 C 374.445312 197.332031 374.660156 196.964844 374.820312 196.414062 C 374.898438 196.132812 374.964844 195.789062 374.910156 195.328125 "/></g><path style=" stroke:none;fill-rule:nonzero;fill:#ffffff;fill-opacity:1;" d="M 363.378906 191.269531 C 363.371094 191.253906 363.359375 191.238281 363.355469 191.214844 C 363.363281 191.199219 363.375 191.230469 363.378906 191.269531 Z M 313.199219 194.695312 C 318.128906 196 323.171875 196.796875 328.242188 197.277344 C 333.316406 197.773438 338.433594 197.890625 343.566406 197.570312 C 348.664062 197.121094 353.925781 196.515625 358.738281 193.886719 C 359.976562 193.144531 360.847656 192.429688 361.898438 191.875 C 362.390625 191.605469 362.949219 191.371094 363.292969 191.328125 C 363.351562 191.328125 363.378906 191.324219 363.390625 191.320312 C 363.402344 191.398438 363.402344 191.515625 363.378906 191.632812 C 363.21875 192.648438 362.550781 193.773438 361.847656 194.746094 C 361.117188 195.726562 360.265625 196.660156 359.179688 197.332031 C 360.40625 196.945312 361.511719 196.191406 362.472656 195.308594 C 363.417969 194.390625 364.296875 193.414062 364.820312 191.980469 C 364.921875 191.605469 365.050781 191.167969 364.820312 190.542969 C 364.699219 190.234375 364.414062 189.925781 364.113281 189.789062 C 363.816406 189.644531 363.535156 189.601562 363.300781 189.59375 C 362.375 189.585938 361.734375 189.84375 361.078125 190.078125 C 359.804688 190.546875 358.632812 191.355469 357.640625 191.800781 C 355.507812 192.75 353.132812 193.347656 350.71875 193.734375 C 348.304688 194.148438 345.835938 194.410156 343.355469 194.558594 C 338.402344 194.929688 333.386719 194.941406 328.359375 194.933594 L 313.199219 194.695312 "/><path style=" stroke:none;fill-rule:nonzero;fill:#ffffff;fill-opacity:1;" d="M 195.765625 27.296875 C 207.605469 30.039062 219.179688 33.820312 230.128906 38.988281 C 241.105469 44.058594 251.554688 50.269531 261.136719 57.628906 C 280.390625 72.210938 296.582031 90.859375 308.246094 112.195312 C 319.941406 133.53125 327.058594 157.433594 329.433594 182.214844 C 330.855469 157.324219 325.554688 131.820312 314.539062 108.96875 C 303.570312 86.082031 286.984375 65.761719 266.597656 50.402344 C 256.371094 42.78125 245.316406 36.25 233.621094 31.179688 C 221.902344 26.203125 209.65625 22.414062 197.121094 20.386719 C 172.125 16.144531 146.167969 17.953125 122.597656 26.09375 C 147.082031 21.613281 172.023438 21.976562 195.765625 27.296875 "/></g></svg>